<svg id="Layer_1" data-name="Layer 1" xmlns="http://www.w3.org/2000/svg" viewBox="0 0 42 42"><defs><style>.cls-1{fill:#205493;}</style></defs><title>VA_Telehealth_Dashboard_Icons</title><path class="cls-1" d="M20,20.48a7.74,7.74,0,0,0,7.73-7.73v-4a7.74,7.74,0,1,0-15.47,0v4A7.74,7.74,0,0,0,20,20.48Z"/><path class="cls-1" d="M37.05,30.56A19.64,19.64,0,0,0,25.9,21.75a.32.32,0,0,0-.31.08A31.82,31.82,0,0,1,20,26.08a40.45,40.45,0,0,1-5.61-4.25.32.32,0,0,0-.31-.08A19.58,19.58,0,0,0,2.93,30.56a.31.31,0,0,0,0,.32,19.84,19.84,0,0,0,34.12,0A.36.36,0,0,0,37.05,30.56ZM25,33.17H22.77a.3.3,0,0,1-.31-.3V31a.31.31,0,0,1,.31-.31H25a.3.3,0,0,0,.29-.31V28.22a.33.33,0,0,1,.33-.31h1.86a.29.29,0,0,1,.28.31v2.17a.33.33,0,0,0,.34.31h2.12a.33.33,0,0,1,.33.31v1.86a.32.32,0,0,1-.33.3h-2.1a.37.37,0,0,0-.36.32v2.17c0,.17-.09.3-.26.3H25.58a.32.32,0,0,1-.33-.3V33.49A.3.3,0,0,0,25,33.17Z"/></svg>