<svg id="Layer_1" data-name="Layer 1" xmlns="http://www.w3.org/2000/svg" viewBox="0 0 42 42"><defs><style>.cls-1{fill:#3fa9f5;}</style></defs><title>VA_Telehealth_Dashboard_Icons</title><path class="cls-1" d="M15.17,22.94a.9.9,0,0,0-.91-.9H11.12a.9.9,0,0,0-.91.9v3.15a.9.9,0,0,0,.91.9h3.14a.9.9,0,0,0,.91-.9Zm0,0"/><path class="cls-1" d="M23,22.94a.9.9,0,0,0-.9-.9H19a.9.9,0,0,0-.91.9v3.15A.9.9,0,0,0,19,27h3.15a.9.9,0,0,0,.9-.9Zm0,0"/><path class="cls-1" d="M30.91,22.94A.9.9,0,0,0,30,22H26.86a.9.9,0,0,0-.91.9v3.15a.9.9,0,0,0,.91.9H30a.9.9,0,0,0,.9-.9Zm0,0"/><path class="cls-1" d="M15.17,30.81a.9.9,0,0,0-.91-.9H11.12a.9.9,0,0,0-.91.9V34a.9.9,0,0,0,.91.9h3.14a.9.9,0,0,0,.91-.9Zm0,0"/><path class="cls-1" d="M23,30.81a.9.9,0,0,0-.9-.9H19a.9.9,0,0,0-.91.9V34a.9.9,0,0,0,.91.9h3.15A.9.9,0,0,0,23,34Zm0,0"/><path class="cls-1" d="M30.91,30.81a.9.9,0,0,0-.9-.9H26.86a.9.9,0,0,0-.91.9V34a.9.9,0,0,0,.91.9H30a.9.9,0,0,0,.9-.9Zm0,0"/><path class="cls-1" d="M36.54,5.43v4.81a3.93,3.93,0,0,1-3.94,3.93H30.12a3.94,3.94,0,0,1-4-3.93V5.41H15v4.83a3.94,3.94,0,0,1-4,3.93H8.52a3.93,3.93,0,0,1-3.94-3.93V5.43A3.58,3.58,0,0,0,1.12,9V37.18a3.58,3.58,0,0,0,3.57,3.58H36.44A3.59,3.59,0,0,0,40,37.18V9a3.58,3.58,0,0,0-3.46-3.56Zm-1.15,30A1.55,1.55,0,0,1,33.85,37H7.21a1.55,1.55,0,0,1-1.54-1.55V20.86a1.54,1.54,0,0,1,1.54-1.54H33.85a1.54,1.54,0,0,1,1.54,1.54Zm0,0"/><path class="cls-1" d="M8.51,11.59H11a1.35,1.35,0,0,0,1.35-1.35V2.35A1.36,1.36,0,0,0,11,1H8.51A1.36,1.36,0,0,0,7.16,2.35v7.89a1.35,1.35,0,0,0,1.35,1.35Zm0,0"/><path class="cls-1" d="M30.09,11.59h2.45a1.34,1.34,0,0,0,1.35-1.35V2.35A1.35,1.35,0,0,0,32.54,1H30.09a1.35,1.35,0,0,0-1.35,1.35v7.89a1.34,1.34,0,0,0,1.35,1.35Zm0,0"/></svg>