<svg id="Layer_1" data-name="Layer 1" xmlns="http://www.w3.org/2000/svg" viewBox="0 0 114 114"><defs><style>.cls-1{fill:#9bdaf1;}</style></defs><title>VA_Telehealth_Dashboard_Icons</title><path class="cls-1" d="M96.22,89.85c-1.09-6.8-3.34-15.57-7.86-18.69C85.27,69,74.5,63.28,69.9,60.83l-.08,0a1.49,1.49,0,0,0-1.63.15,19.66,19.66,0,0,1-7.85,3.79,1.5,1.5,0,0,0-1.07.93l-2.59,6.8-2.58-6.8A1.5,1.5,0,0,0,53,64.72a19.66,19.66,0,0,1-7.85-3.79,1.51,1.51,0,0,0-1.64-.15l-.07,0C38.87,63.28,28.1,69,25,71.16c-4.52,3.12-6.77,11.89-7.86,18.69a1.42,1.42,0,0,0,.06.74c.19.53,4.94,12.81,39.47,12.88S96,91.12,96.16,90.59a1.54,1.54,0,0,0,.06-.74ZM79.14,84.9H65.52V82H79.14Zm0,0"/><path class="cls-1" d="M56.68,63c5.86,0,21.18-7.94,21.18-26.14,0-2.58-.06-5.06-.28-7.41-.34-4.63-1.29-8.72-3.65-11.86-3-4.23-8.21-6.83-17.25-6.88s-14.25,2.65-17.24,6.88c-2.36,3.14-3.31,7.23-3.66,11.86-.21,2.35-.27,4.83-.27,7.41C35.51,55.09,50.83,63,56.68,63Zm13.6-26.15a4.28,4.28,0,0,1,.46,1.85c0,1.25-.24,3.46-1.93,4.28a7.92,7.92,0,0,1-3.21.61c-2.32,0-4.16-.77-4.93-2.06-1.65-2.78-1.1-4.39-1.1-4.41s.55-1,5-1.3c.78-.05,1.43-.07,2-.07,2.48,0,3.26.42,3.7,1.1Zm-13.6-17.7a23.51,23.51,0,0,1,6.74,1.14c-.63,1.57-.94,2.36-1.56,3.94a20.16,20.16,0,0,0-5.18-.85,20.16,20.16,0,0,0-5.17.85c-.62-1.58-.94-2.37-1.56-3.94a23.79,23.79,0,0,1,6.73-1.14Zm0,9.89a18,18,0,0,1,12.68,5.11c-.93-.09-1.9-.13-2.92-.13-.86,0-1.74,0-2.63.09l-.16,0a10.58,10.58,0,0,0-4,.74c-.24.11-.52.24-.81.39a7,7,0,0,1-1.35.53,3.05,3.05,0,0,1-1.55,0,6.56,6.56,0,0,1-1.35-.53l-.81-.39a10.58,10.58,0,0,0-4-.74l-.16,0c-.89-.06-1.77-.09-2.63-.09-1,0-2,0-2.92.13a18,18,0,0,1,12.67-5.11ZM43.09,36.88c.44-.68,1.22-1.1,3.7-1.1.57,0,1.22,0,2,.07,4.46.26,5,1.2,5,1.3s.55,1.63-1.1,4.41c-.77,1.29-2.61,2.06-4.93,2.06A8,8,0,0,1,44.55,43c-1.68-.82-1.92-3-1.92-4.28a4.15,4.15,0,0,1,.46-1.85Zm-4.39-4a6.35,6.35,0,0,0,1.73,2.31,1.51,1.51,0,0,0-.29.8c0,.18,0,.49,0,.77v.42a1.4,1.4,0,0,0,.42,1.12l.1.12a1,1,0,0,1,.12.38c.66,4,.82,4.68,2.63,5.63a10.53,10.53,0,0,0,4.23.74,10.84,10.84,0,0,0,4.83-1c2.37-1.24,3.24-5.42,3.27-5.6s.21-.33.8-.33h.27c.59,0,.78.2.8.33s.9,4.36,3.27,5.6a10.78,10.78,0,0,0,4.82,1A10.54,10.54,0,0,0,70,44.43c1.81-1,2-1.64,2.62-5.63a1.21,1.21,0,0,1,.13-.38l.1-.12a1.4,1.4,0,0,0,.42-1.12c0-.08,0-.22,0-.38v0a6.53,6.53,0,0,0,0-.77,1.42,1.42,0,0,0-.28-.8,6.35,6.35,0,0,0,1.73-2.31c0,1.33.07,2.67.07,4,0,9-4,14.6-7.32,17.7-4.05,3.75-9.11,5.31-10.74,5.31S50,58.34,46,54.59c-3.34-3.1-7.32-8.69-7.32-17.7,0-1.34,0-2.68.07-4Zm0,0"/></svg>