<svg id="Layer_1" data-name="Layer 1" xmlns="http://www.w3.org/2000/svg" viewBox="0 0 114 114"><defs><style>.cls-1{fill:#9bdaf1;}</style></defs><title>VA_Telehealth_Dashboard_Icons</title><path class="cls-1" d="M103.14,10.05H11.2a6.4,6.4,0,0,0-6.39,6.36V82.53a6.41,6.41,0,0,0,6.39,6.36h91.94a6.38,6.38,0,0,0,6.36-6.36V16.41A6.38,6.38,0,0,0,103.14,10.05ZM54,26.74a1.59,1.59,0,0,1,0-3.17H55.6V22a1.59,1.59,0,0,1,3.17,0v1.58h1.54a1.59,1.59,0,0,1,0,3.17H58.77v1.54a1.59,1.59,0,1,1-3.17,0V26.74ZM74.63,68.51v6.87H63V68.51h4.23V66.37a1.59,1.59,0,0,1,3.17,0v2.14Zm26.91,9.32H79.13a33.29,33.29,0,0,0,7.15-8.49.55.55,0,0,0,0-.53,33.47,33.47,0,0,0-19-15,.52.52,0,0,0-.53.13,55.88,55.88,0,0,1-9.55,7.26,68.73,68.73,0,0,1-9.58-7.26.51.51,0,0,0-.52-.13,33.41,33.41,0,0,0-19,15,.51.51,0,0,0,0,.53,33.05,33.05,0,0,0,7.14,8.49H12.8V19H50A35.7,35.7,0,0,0,44.3,20.6a.52.52,0,0,0-.34.49V38.4a13.22,13.22,0,0,0,26.44,0V21.09A.55.55,0,0,0,70,20.6,35.4,35.4,0,0,0,64.36,19h37.18Z"/><polygon class="cls-1" points="45.38 91.92 33.33 104.16 81.16 104.16 69.13 91.92 45.38 91.92"/></svg>