<svg id="Layer_1" data-name="Layer 1" xmlns="http://www.w3.org/2000/svg" viewBox="0 0 114 114"><defs><style>.cls-1{fill:#9bdaf1;}</style></defs><title>VA_Telehealth_Dashboard_Icons</title><path class="cls-1" d="M9,72.4h.24v6.93h6.13l18.19,7.16v-2l-13.2-5.21h13.2v-2H11.16v-5H34V68.07a12.59,12.59,0,0,1-2.07.31l-.57,0c-4.9,0-5.37-2.21-5.66-5.13,0-.22,0-.43-.05-.64H9A2.94,2.94,0,0,0,6,65.58v3.87A3,3,0,0,0,9,72.4Zm0,0"/><path class="cls-1" d="M77.26,62.64H61.91c0,.12,0,.22,0,.35-.29,3-1.47,5.55-6,5.1a16.31,16.31,0,0,1-2-.25V72.4H75.05v5H54.27v2H65.91L54.27,83.91v2L70.9,79.33H77V72.4h.25a3,3,0,0,0,2.94-3V65.58a2.94,2.94,0,0,0-2.95-2.94Zm0,0"/><path class="cls-1" d="M77.51,104.8v-1.08h1.54v-2H77.26l-23.7-9.33A6.6,6.6,0,0,1,52.46,94l19.81,7.8H14l21-8.26A6.35,6.35,0,0,1,34,91.91L9,101.76H7.16v2h.56v1.08a3.2,3.2,0,1,0,3,0v-1.08H74.56v1.08a3.2,3.2,0,1,0,3,0Zm0,0"/><path class="cls-1" d="M48.07,63.1a4,4,0,0,0-4,4V90.05a4,4,0,1,0,8,0V67.11a4,4,0,0,0-4-4Zm0,0"/><path class="cls-1" d="M39.47,63.1a4,4,0,0,0-4,4V90.05a4,4,0,0,0,8,0V67.11a4,4,0,0,0-4-4Zm0,0"/><path class="cls-1" d="M52.47,27.62a8.74,8.74,0,1,1-8.74-8.74,8.74,8.74,0,0,1,8.74,8.74Zm0,0"/><path class="cls-1" d="M30.59,67a2.06,2.06,0,0,0,.35,0,3.4,3.4,0,0,0,3-3.71c-.52-5.12-.14-8.7.8-11.36V64a6,6,0,0,0,0,.61,5.22,5.22,0,0,1,8.44-1.48,4.87,4.87,0,0,1,.58.71,5.27,5.27,0,0,1,4.3-2.24,5.2,5.2,0,0,1,4.52,2.63,1.79,1.79,0,0,0,0-.23V51.7c1,2.65,1.4,6.2.9,11.26a3.4,3.4,0,0,0,3,3.72H57a3.39,3.39,0,0,0,3.37-3.06C61.86,48.36,54.5,39.14,45.91,37.1l-2.18,2.19-2.11-2.22h0C38.67,38,25,42.78,27.22,63.94A3.4,3.4,0,0,0,30.59,67Zm0,0"/><path class="cls-1" d="M87.89,32.55a5.34,5.34,0,0,0,5.34-5.33V24.46a5.34,5.34,0,1,0-10.67,0v2.76A5.33,5.33,0,0,0,87.89,32.55Z"/><path class="cls-1" d="M99.65,39.5A13.49,13.49,0,0,0,92,33.43a.18.18,0,0,0-.21,0,22.47,22.47,0,0,1-3.86,2.93A27.14,27.14,0,0,1,84,33.48a.19.19,0,0,0-.21,0,13.54,13.54,0,0,0-7.69,6.07.22.22,0,0,0,0,.22,13.67,13.67,0,0,0,23.52,0A.22.22,0,0,0,99.65,39.5Zm-8.33,1.8H89.81a.21.21,0,0,1-.21-.21V39.81a.21.21,0,0,1,.21-.21h1.51a.21.21,0,0,0,.2-.22V37.89a.22.22,0,0,1,.23-.21H93a.2.2,0,0,1,.2.21v1.5a.23.23,0,0,0,.23.21h1.46a.24.24,0,0,1,.23.21v1.28a.23.23,0,0,1-.23.21H93.47a.24.24,0,0,0-.24.22V43a.18.18,0,0,1-.18.2h-1.3a.22.22,0,0,1-.23-.2v-1.5A.21.21,0,0,0,91.32,41.3Z"/><path class="cls-1" d="M106.16,16H69.72a2.54,2.54,0,0,0-2.54,2.52V44.76a2.54,2.54,0,0,0,2.54,2.52h36.44a2.53,2.53,0,0,0,2.52-2.52V18.55A2.53,2.53,0,0,0,106.16,16Zm-.63,26.87H70.35V19.57h35.18Zm0,0"/><circle class="cls-1" cx="58.97" cy="6.65" r="3.26"/><rect class="cls-1" x="62.35" y="11.36" width="13.04" height="2.29" transform="translate(35.69 -49.12) rotate(51.41)"/><rect class="cls-1" x="58.12" y="6.06" width="7.46" height="2.29" transform="translate(1.71 -8.92) rotate(8.37)"/></svg>