<svg id="Layer_1" data-name="Layer 1" xmlns="http://www.w3.org/2000/svg" viewBox="0 0 42 42"><defs><style>.cls-1{fill:#1f5593;}.cls-2{fill:#122e50;}.cls-3{fill:#fff;stroke:#122e50;stroke-miterlimit:10;stroke-width:2px;}</style></defs><title>VA_Telehealth_Dashboard_Icons</title><path class="cls-1" d="M39.93,21A19,19,0,1,0,2,21v.09A19.13,19.13,0,0,1,18.66,2.21c-9,9.18-7.94,24.12-4.36,36.52A19,19,0,0,0,39.93,21Z"/><path class="cls-2" d="M18.66,2.21A18.93,18.93,0,0,0,14.3,38.73C10.72,26.33,9.69,11.39,18.66,2.21Z"/><circle class="cls-3" cx="20.97" cy="20.98" r="12.52"/><path class="cls-2" d="M15.25,13.91h2.33a.38.38,0,0,1,.38.39v4.46a.38.38,0,0,0,.39.39h5.24a.38.38,0,0,0,.38-.39V14.3a.38.38,0,0,1,.38-.39h2.33a.38.38,0,0,1,.38.39V27.57a.38.38,0,0,1-.38.38H24.35a.38.38,0,0,1-.38-.38v-5.3a.39.39,0,0,0-.38-.39H18.35a.39.39,0,0,0-.39.39v5.3a.38.38,0,0,1-.38.38H15.25a.38.38,0,0,1-.38-.38V14.3A.38.38,0,0,1,15.25,13.91Z"/></svg>