<svg id="Layer_1" data-name="Layer 1" xmlns="http://www.w3.org/2000/svg" viewBox="0 0 42 42"><defs><style>.cls-1{fill:#4aa564;stroke:#2e8540;stroke-miterlimit:10;}.cls-2{fill:#fff;}</style></defs><title>VA_Telehealth_Dashboard_Icons</title><path class="cls-1" d="M34.89,16.27a13.25,13.25,0,1,0-26.49,0c0,2.89,1.3,5.34,2.49,7.75,2.08,4.19,5.9,10.8,7.91,14.37a3.61,3.61,0,0,0,6,0c2-3.58,5.33-9.31,7.63-14.42,1.09-2.44,2.46-4.84,2.46-7.71ZM21.64,11.93"/><polygon class="cls-2" points="21.64 12.53 25.78 10.35 24.99 14.96 28.33 18.22 23.71 18.89 21.64 23.09 19.57 18.89 14.95 18.22 18.3 14.96 17.5 10.35 21.64 12.53"/></svg>