<svg id="Layer_1" data-name="Layer 1" xmlns="http://www.w3.org/2000/svg" viewBox="0 0 42 42"><defs><style>.cls-1{fill:#1f5593;}.cls-2{fill:#122e50;}.cls-3{fill:#fff;stroke:#122e50;stroke-miterlimit:10;stroke-width:0.5px;}</style></defs><title>VA_Telehealth_Dashboard_Icons</title><path class="cls-1" d="M21.44,1a13.11,13.11,0,0,0-1.79.13c-10.26,10.49-2.39,31.43,2.18,39a1.42,1.42,0,0,0,.84-.65l7.15-13.69A13.8,13.8,0,0,0,21.44,1Z"/><path class="cls-2" d="M19.65,1.13a13.79,13.79,0,0,0-6.6,24.63L20.2,39.45a1.43,1.43,0,0,0,1.63.65C17.26,32.56,9.39,11.62,19.65,1.13Z"/><circle class="cls-3" cx="21.44" cy="14.86" r="9.03"/><path class="cls-2" d="M17.32,9.76H19a.28.28,0,0,1,.28.28v3.22a.28.28,0,0,0,.28.28h3.78a.28.28,0,0,0,.27-.28V10a.29.29,0,0,1,.28-.28h1.68a.28.28,0,0,1,.27.28v9.57a.28.28,0,0,1-.27.28H23.88a.29.29,0,0,1-.28-.28V15.79a.27.27,0,0,0-.27-.28H19.55a.27.27,0,0,0-.28.28v3.82a.28.28,0,0,1-.28.28H17.32a.28.28,0,0,1-.28-.28V10A.28.28,0,0,1,17.32,9.76Z"/></svg>