<svg id="Layer_1" data-name="Layer 1" xmlns="http://www.w3.org/2000/svg" viewBox="0 0 42 42"><defs><style>.cls-1{fill:#205493;}</style></defs><title>VA_Telehealth_Dashboard_Icons</title><path class="cls-1" d="M27.89,20.22l5.57-7.44a7,7,0,1,0-11.14,0Zm0-15.08a3.48,3.48,0,1,1-3.48,3.48,3.48,3.48,0,0,1,3.48-3.48Zm0,0"/><path class="cls-1" d="M27.89,9.78a1.16,1.16,0,1,0-1.16-1.16,1.16,1.16,0,0,0,1.16,1.16Zm0,0"/><path class="cls-1" d="M29.14,22.42c1.43-.24,2.23-.82,2.23-1s-.28-.41-.93-.69Zm0,0"/><path class="cls-1" d="M24.41,21.38c0,.22.8.8,2.23,1l-1.3-1.73c-.65.28-.93.6-.93.69Zm0,0"/><path class="cls-1" d="M35.32,14.17l-3.46,4.62a3,3,0,0,1,1.83,2.59c0,1.74-1.93,3.11-4.64,3.41V38.4l11.68-4.64V8.06L37.1,9.48a9.21,9.21,0,0,1-1.78,4.69Zm0,0"/><path class="cls-1" d="M10.49,6.88l-9.35,7v26.1l9.35-7Zm0,0"/><path class="cls-1" d="M26.73,37.62V24.79c-2.71-.3-4.64-1.67-4.64-3.41a3,3,0,0,1,1.83-2.59l-3.46-4.62a9.15,9.15,0,0,1-1.8-5L12.81,6.69V32.41l13.92,6Zm0,0"/></svg>