<svg id="Layer_1" data-name="Layer 1" xmlns="http://www.w3.org/2000/svg" viewBox="0 0 114 114"><defs><style>.cls-1{fill:#9bdaf1;}</style></defs><title>VA_Telehealth_Dashboard_Icons</title><path class="cls-1" d="M104.08,9.61H11.28A6.46,6.46,0,0,0,4.83,16V82.77a6.46,6.46,0,0,0,6.45,6.42h92.8a6.44,6.44,0,0,0,6.42-6.42V16A6.44,6.44,0,0,0,104.08,9.61ZM66.29,74H62.45a.53.53,0,0,1-.54-.53V70.16a.54.54,0,0,1,.54-.54h3.84a.51.51,0,0,0,.5-.54V65.27a.58.58,0,0,1,.59-.54h3.26a.51.51,0,0,1,.5.54v3.82a.57.57,0,0,0,.59.53h3.72a.58.58,0,0,1,.58.55v3.27a.56.56,0,0,1-.58.53H71.77a.63.63,0,0,0-.63.55V78H66.8V74.52A.53.53,0,0,0,66.29,74ZM102.46,78H80.88a34.16,34.16,0,0,0,6.63-8.09.54.54,0,0,0,0-.55A34.43,34.43,0,0,0,67.94,53.92a.54.54,0,0,0-.54.13,57.09,57.09,0,0,1-9.83,7.47,71,71,0,0,1-9.85-7.47.54.54,0,0,0-.54-.13A34.43,34.43,0,0,0,27.61,69.39a.54.54,0,0,0,0,.55A34.16,34.16,0,0,0,34.24,78H12.89V18.62H52.15A13.59,13.59,0,0,0,44,31.07v7a13.58,13.58,0,1,0,27.16,0v-7A13.59,13.59,0,0,0,63,18.62h39.49Z"/><polygon class="cls-1" points="45.77 92.24 33.62 104.6 81.89 104.6 69.75 92.24 45.77 92.24"/></svg>